<?xml version="1.0" encoding="UTF-8"?>
<svg id="Camada_2" data-name="Camada 2" xmlns="http://www.w3.org/2000/svg" viewBox="0 0 321.9 433.1">
  <defs>
    <style>
      .cls-1 {
        fill: #040404;
      }

      .cls-2 {
        fill: #030303;
      }

      .cls-3 {
        fill: #050505;
      }

      .cls-4 {
        fill: #020202;
      }

      .cls-5 {
        fill: #fff;
      }

      .cls-6 {
        fill: #fffdfd;
      }

      .cls-7 {
        fill: #fffefe;
      }

      .cls-8 {
        fill: red;
      }

      .cls-9 {
        fill: #ff0101;
      }

      .cls-10 {
        fill: #090909;
      }

      .cls-11 {
        fill: #0e0e0e;
      }
    </style>
  </defs>
  <g id="logo_HR_Imagem" data-name="logo HR Imagem">
    <g>
      <path class="cls-8" d="M109.8,70.9c0-10.2,0-20.5,0-30.7,0-9,2.3-17.3,7.8-24.4C124.8,6.2,134.5,.8,146.4,.4c11.3-.4,22.6-.5,33.8,0,16.8,.9,31.3,13.6,34.9,30.1,.7,3.1,1,6.3,1,9.5,0,21.8,0,43.7,0,65.5,0,3.3-.4,2.9,3,2.9,21.3,0,42.7-.2,64,0,15.8,.2,27.4,7.6,34.8,21.5,2.9,5.5,4,11.4,4,17.6,0,9.4,0,18.7,0,28.1,0,18.3-11.9,32.2-26.5,37-4.2,1.4-8.5,2-13,1.9-10.1,0-20.1,0-30.2,0-11.1,0-22.2,0-33.3,0-.6,0-1.1,0-1.7,0-.8,0-1.2,.3-1.1,1.1,0,.6,0,1.3,0,1.9,0,21.4,0,42.9,0,64.3,0,11.4-4.1,21.1-12.5,28.8-7.1,6.6-15.7,10.1-25.4,10.2-10.2,.1-20.3,.1-30.5,0-18.2-.2-34-13.7-37.2-31.7-.5-2.9-.6-5.9-.6-8.8,0-20.7,0-41.4,0-62.2,0-.5,0-1,0-1.4,0-2.3,0-2.3-2.4-2.3-22.1,0-44.1,0-66.2,0-3.4,0-6.9-.2-10.2-1-15.4-3.6-27.2-16.4-29.4-32.1-.2-1.7-.4-3.3-.4-5,0-9.9,0-19.8,0-29.8,.2-15.9,9.7-29.7,24.4-35.6,4.8-1.9,9.8-2.8,15-2.7,22.1,0,44.1,0,66.2,0,3.4,0,3.1,.5,3.1-3,0-11.5,0-23,0-34.6Z"/>
      <path class="cls-8" d="M77.4,376.3c.6-.7,1.1-1.5,1.7-2.2,2.8-3.3,6.4-4.1,10.4-3.3,4,.9,6.3,3.6,7.2,7.5,.6,2.6,.8,5.2,.8,7.9,0,14.6,0,29.3,0,43.9,0,1.8,0,1.9-1.8,1.9-3.9,0-7.8,0-11.8,0-2.1,0-2.1,0-2.1-2.1,0-10.8,0-21.6,0-32.4,0-4.2,0-8.3,0-12.5,0-.7,0-1.4-.2-2.1-.2-1.1-.9-1.7-2-1.7-1.1,0-1.9,.6-2.1,1.7-.2,1.3-.4,2.7-.4,4.1,0,3.1,0,6.2,0,9.4,0,11,0,21.9,0,32.9,0,.6,0,1.1,0,1.7,0,.8-.2,1.2-1.1,1.2-4.5,0-9,0-13.4,0-.7,0-1-.3-1-1,0-.5,0-1,0-1.4,0-18.5,0-37,0-55.4,0-.4,0-.8,0-1.2,0-1.1,.4-1.4,1.4-1.3,4.3,0,8.6,0,12.9,0,1.2,0,1.6,.4,1.4,1.5-.1,1-.2,2.1-.2,3.1h.4Z"/>
      <path class="cls-8" d="M294.1,410.8c1.6,0,3.2,0,4.8,0,2.2,0,2.1-.1,2.1,2,0,1.5,0,3,0,4.6,0,1.1,.2,2.2,.5,3.3,.2,1,1,1.6,2.1,1.6,1.1,0,2.2-.4,2.5-1.5,.8-2.8,.7-5.7-.2-8.5-.2-.8-1-1.2-1.6-1.7-2.4-1.7-4.9-3.4-7.3-5-1.8-1.3-3.7-2.6-5.4-4-2.5-2.2-4-5-4.5-8.2-.7-4.3-.5-8.6,.3-12.9,.8-4.2,3.4-7,7.3-8.5,5.5-2.1,11.1-2.1,16.6,0,5.2,2,8.2,5.9,8.3,11.7,0,1.9,0,3.8,0,5.8,0,1-.2,1.4-1.3,1.4-3.7,0-7.4,0-11,0-1.2,0-1.5-.5-1.5-1.6,0-1.9,0-3.8-.2-5.8-.1-1.6-.7-2.2-1.9-2.3-1.2-.1-2.2,.6-2.7,1.9-1.2,3.4,0,7.5,2.8,9.7,1.9,1.6,4.1,2.8,6.2,4,2.2,1.3,4.3,2.7,6.3,4.4,2.3,2,3.6,4.5,4.1,7.4,.8,4.7,.6,9.4-.4,14.1-.9,4.3-3.5,7.3-7.6,8.9-6.1,2.3-12.2,2-18.1-.8-4.1-1.9-6.2-5.4-6.8-9.8-.4-2.9-.5-5.7-.5-8.6,0-1.1,.3-1.6,1.5-1.5,1.8,0,3.7,0,5.5,0Z"/>
      <path class="cls-8" d="M229.9,409.4c.7-6.3,1-12.6,1.5-18.9,.5-5.8,.9-11.6,1.3-17.4,0-.8,0-1.6,1.3-1.6,4.1,0,8.3,0,12.3,0,.6,.5,.4,1,.4,1.5-1.5,12.5-3.1,25.1-4.6,37.6-.8,6.6-1.6,13.2-2.4,19.7-.2,1.7-.9,1.8-3.6,1.4-4.8-.6-9.7-.5-14.5,0s-2.6-.2-2.8-1.7c-.9-7-1.8-13.9-2.7-20.9-1.2-9.3-2.4-18.7-3.7-28-.4-3.2-.8-6.3-1.2-9.5,1.4-.4,2.6-.2,3.8-.2s3,0,4.5,0c5.5,.1,5.5-.6,5.9,3.3,.9,8.7,1.7,17.5,2.6,26.2,.3,2.9,.7,5.9,1,8.8,0,.4,0,.7,.2,1,0,.5,.2,.8,.3,1.3,0,.2,0,.3,0,.5,0,.2,0,.5,0,.7,0-.2,0-.5,0-.8,0-.5,.1-.9,.2-1.4,.1-.7,.2-1.1,.3-1.8Z"/>
      <path class="cls-8" d="M209.8,395.3c0,11.3,0,22.5,0,33.8,0,.6,0,1.1,0,1.7,0,.8-.2,1.2-1.1,1.2-4.6,0-9.3,0-13.9,0-.8,0-1.2-.3-1.2-1.1,0-.5,0-1,0-1.4,0-22.9,0-45.7,0-68.6,0-2.8-.3-2.6,2.5-2.6,3.8,0,7.7,0,11.5,0,2.1,0,2.1,0,2.1,2.1,0,11.7,0,23.3,0,35Z"/>
      <path class="cls-8" d="M40.6,401.5c0-9,0-18.1,0-27.1,0-.6,0-1.1,0-1.7,0-.8,.3-1.1,1.1-1.1,4.6,0,9.3,0,13.9,0,.8,0,1.1,.4,1.1,1.2,0,.5,0,1,0,1.4,0,18.4,0,36.8,0,55.2s0,.2,0,.2c0,2.5,.2,2.3-2.3,2.3-4,0-8,0-12,0-1.8,0-1.8,0-1.8-1.9,0-9.5,0-19,0-28.6Z"/>
      <path class="cls-9" d="M48.6,367.8c-2.2,0-4.3,0-6.5,0-1.1,0-1.6-.2-1.6-1.4,0-2.2,0-4.5,0-6.7,0-1.2,.5-1.5,1.6-1.5,4.4,0,8.8,0,13.2,0,1,0,1.5,.3,1.4,1.3,0,2.3,0,4.6,0,6.9,0,1.1-.5,1.3-1.4,1.3-2.2,0-4.5,0-6.7,0Z"/>
      <path class="cls-1" d="M69,336.3c-2.7-1.2-5.3-2.6-7.5,.3-1.3,1.7-1.1,5.4,.2,7,1.4,1.6,3.7,1.6,7,0,.4,1,.9,1.9-.5,2.5-.8,.3-.8,.9-.7,1.6,.2,2.7-2.1,4.5-5.3,3.8-.8-.2-1.1-.6-1-1.3,.1-.9,.7-.5,1.2-.5,2,.3,2.8,0,3.2-1.3,.2-.8,.3-1.5-.9-1.5-.3,0-.6,0-1,0-2.7-.4-4.6-1.8-5.2-4.6-.7-3-.4-5.8,2.1-7.9,2.3-1.9,4.9-1.6,7.5-.7,1.3,.4,1,1.4,.9,2.7Z"/>
      <path class="cls-1" d="M180.8,343.6c0,1.1,.6,2.1-.8,2.5-.9,.3-.5,1.2-.6,1.9-.4,2.8-2.6,4.2-5.4,3.5-.9-.2-.9-.8-.8-1.4,.1-.7,.7-.5,1.1-.4,.9,.3,1.8,.2,2.5-.3,.7-.4,.8-1.1,.7-1.9-.1-.7-.7-.5-1.1-.6-6-.3-7.1-5.7-5.8-9.8,1.1-3.8,6.5-5.5,9.8-3.3,1,.7,.5,1.5,.5,2.5-2.6-1.1-5.1-2.6-7.4,.2-1.4,1.7-1.3,5.4,0,7,1.3,1.7,3.5,1.7,7.3,0Z"/>
      <path class="cls-1" d="M242.1,340.1c0,1.7,0,3.4,0,5,0,.5,.2,1.1-.4,1.3-.5,.2-1.4,.5-1.7-.3-.3-.8-.7-.7-1.2-.3-.2,.1-.4,.2-.6,.4-4,1.9-7.1,.1-7.2-4.3,0-2.4,0-4.8,0-7.2,0-.9,0-1.6,1.2-1.5,1.1,0,1.1,.7,1.1,1.4,0,2.2,0,4.5,0,6.7,0,1.4,0,2.8,1.7,3.3,1.3,.4,3.9-.4,4.7-1.3,.4-.5,.3-1.1,.3-1.6,0-2.3,0-4.6,0-6.9,0-.8-.2-1.6,1.1-1.6,1.3,0,1,1,1.1,1.7,0,1.8,0,3.5,0,5.3Z"/>
      <path class="cls-1" d="M302.6,336c-1.4-.4-2.5-1.1-3.8-1.2-2.1-.1-3.4,.4-3.5,1.6-.2,1.2,.7,1.8,2.8,2.3,.9,.2,1.9,.3,2.8,.7,2.6,1,3.2,4.1,1.1,6-1.8,1.7-6.6,2-8.6,.5-.9-.6-.3-1.4-.6-2.3,1,0,1.6,.5,2.3,.7,1.3,.4,2.6,.8,4,.4,1-.3,1.9-.7,1.8-1.9,0-1-.8-1.5-1.7-1.7-.7-.2-1.4-.3-2.1-.5-.6-.2-1.2-.3-1.8-.5-1.3-.4-2.2-1.4-2.3-2.8-.2-1.5,.4-2.6,1.6-3.5,1.6-1.2,5.9-1.4,7.6-.3,.9,.5,.6,1.3,.5,2.4Z"/>
      <path class="cls-1" d="M218.4,343.6c1.2,.4,2.3,.8,3.5,1.2,1,.3,2,.2,3.1-.1,.9-.3,1.3-.9,1.3-1.8,0-.8-.5-1.3-1.3-1.5-1.5-.4-3-.6-4.4-1.2-2.6-1-3.1-4.2-1-6,.7-.6,1.5-1,2.4-1.1,1.4-.2,2.9-.2,4.3,.1,1.8,.4,1.8,.5,1.7,2.7-1.2-.1-2.1-1-3.3-1.1-.9,0-1.8-.1-2.6,.2-.7,.2-1.3,.7-1.3,1.6,0,.8,.4,1.4,1.1,1.6,.7,.2,1.4,.4,2.1,.6,.8,.2,1.6,.3,2.3,.6,2.7,1,3.3,4.3,1,6.1-1.9,1.6-6.5,1.8-8.4,.4-.9-.6-.6-1.5-.4-2.4Z"/>
      <path class="cls-1" d="M94.2,336c-1.2-.2-2.1-.9-3.3-1-.9,0-1.8-.2-2.6,0-.8,.2-1.4,.7-1.4,1.7,0,.8,.5,1.3,1.2,1.6,.7,.2,1.4,.4,2.1,.5,.8,.2,1.7,.4,2.5,.7,2.3,1,2.8,3.9,1,5.7-1.8,1.8-6.8,2.2-8.8,.7q-.4-.3-.3-2.4c1.1,.4,2.2,.8,3.3,1.1,1.2,.4,2.4,.3,3.5-.2,.8-.3,1.1-.9,1.1-1.7,0-.7-.4-1.2-1.1-1.4-.8-.2-1.5-.4-2.3-.6-.7-.2-1.4-.3-2.1-.5-1.4-.5-2.3-1.3-2.5-2.9-.1-1.6,.5-2.9,1.9-3.6,2.3-1.3,4.8-1,7.2-.1,1.1,.4,.6,1.4,.6,2.3Z"/>
      <path class="cls-2" d="M12.6,336.1c-1.4-.6-2.7-1.2-4.1-1.2-.7,0-1.4,0-2.1,.3-.6,.3-1,.8-1,1.5,0,.7,.4,1.2,1,1.5,.7,.3,1.4,.4,2.1,.6,.8,.2,1.6,.3,2.3,.5,1.5,.5,2.5,1.4,2.6,3.1,0,1.6-.6,2.8-2,3.5-2.5,1.3-5.1,1.1-7.6,0-1.1-.5-.6-1.5-.7-2.5,1.1,.4,2.1,.8,3.1,1.1,1.2,.4,2.3,.4,3.5,0,.9-.3,1.4-.9,1.3-1.8,0-.8-.5-1.3-1.3-1.6-.7-.2-1.4-.4-2.1-.5-.5-.1-1.1-.2-1.6-.4-2.2-.7-3-1.7-3-3.5,0-1.7,1.3-3.3,3.2-3.7,1.6-.4,3.3-.4,5,0,1.6,.4,1.6,.5,1.4,2.8Z"/>
      <path class="cls-1" d="M37.6,333.5q2.6-.6,3.5,1.7c1.1,2.7,2.2,5.5,3.4,8.6,1.3-3.2,2.5-6,3.5-8.9,.5-1.4,1.2-2,2.7-1.5,0,1.1-.6,1.9-.9,2.9-1.1,2.9-2.3,5.8-3.5,8.6-.4,.9-.6,1.7-1.9,1.7-1.2,0-1.4-.8-1.7-1.6-1.4-3.5-2.9-7-4.3-10.5-.6,.2,0,1.1-.8,1-.5-.7-.6-1.3,0-1.9Z"/>
      <path class="cls-10" d="M248.5,334.8c1.3-.8,2.7-1.7,4.3-1.6,.9,0,1.3,.3,1.3,1.3,0,.8-.2,1.2-1.1,1.1-1.2-.2-2.4,0-3.5,.6-1,.5-1.5,1.2-1.5,2.4,0,2.2,0,4.5,0,6.7,0,.8-.2,1.3-1.2,1.3-1,0-1.2-.5-1.2-1.3,0-3.6,0-7.2,0-10.8,0-.6,0-1.3,.9-1.3,.8,0,1.5,0,1.4,1.1,0,.2,0,.5,.3,.6Z"/>
      <path class="cls-2" d="M272.5,335c1.5-1,2.9-1.8,4.6-1.8,1,0,1.4,.5,1.3,1.5,0,1-.7,.8-1.3,.8-.5,0-1,0-1.4,0-2.5,.3-3.4,1.3-3.4,3.9,0,1.9,0,3.8,0,5.7,0,.7,.1,1.4-1,1.4-1.1,0-1.1-.5-1.1-1.3,0-3.6,0-7.2,0-10.8,0-.6,0-1.3,.9-1.3,.9,0,1.3,.3,1.3,1.2,0,.1,0,.3,.2,.6Z"/>
      <path class="cls-2" d="M149.9,335.2c1.8-1.2,3.1-2,4.8-2,1,0,1.5,.3,1.4,1.4,0,.7-.3,1-1,.9-.6,0-1.3,0-1.9,0-2.4,.4-3.2,1.4-3.2,3.8,0,2,0,4,0,6,0,.9-.2,1.3-1.2,1.3-.9,0-1-.6-1-1.2,0-3.5,0-7,0-10.5,0-.6-.3-1.5,.8-1.6,1.3-.2,1.5,.6,1.3,2Z"/>
      <path class="cls-2" d="M37.6,333.5v1.9c-1.6,.1-3.2,0-4.6,.9-.7,.5-1.1,1-1.1,1.9,0,2.3,0,4.6,0,6.9,0,.8,0,1.4-1.1,1.4-1.1,0-1.1-.6-1.1-1.4,0-3.4,0-6.8,0-10.3,0-.7-.3-1.6,1-1.8,1.4-.2,1.1,.9,1.4,1.8,1.8-.9,3.4-2.3,5.5-1.4Z"/>
      <path class="cls-2" d="M55.4,339.9c0,1.8,0,3.7,0,5.5,0,.7,0,1.2-1,1.2-1,0-1.2-.4-1.2-1.3,0-3.6,0-7.2,0-10.7,0-.8,0-1.4,1.1-1.4,1.1,0,1.1,.7,1.1,1.4,0,1.8,0,3.5,0,5.3Z"/>
      <path class="cls-11" d="M190.7,330.9c-1.4,0-2.1-.5-2.8-1-1.7-1.2-1.8-1.2-2.8,.5-.3,.5-.6,.7-1.1,.6-.6-.2-.5-.7-.3-1.2,.6-2.1,2.5-3,4.4-1.9,.4,.2,.8,.6,1.2,.8,1.4,.8,1.6,.9,2.4-.6,.3-.6,.7-.9,1.3-.7,.8,.3,.3,1,.2,1.4-.4,1.4-1.4,2.1-2.3,2.1Z"/>
      <path d="M54.3,331.1c-1.2,.2-1.4-.4-1.4-1.4,0-1.1,.6-1.1,1.4-1.1,.8,0,1.4,0,1.4,1.1,0,1-.3,1.6-1.3,1.3Z"/>
      <path class="cls-5" d="M171.8,162c0,8.9,0,17.8-.3,26.6-.1,4-.7,8-2,11.8-.8,2.4-1.9,4.7-3.7,6.7-4.1,4.5-10.5,4.5-14.5,0-1.6-1.8-2.7-4-3.5-6.2-1.5-4.2-2.1-8.5-2.2-12.9-.3-17.4-.3-34.7,0-52.1,0-4.1,.6-8.1,1.9-12,.8-2.6,2-5.1,3.8-7.1,4.1-4.5,10.4-4.6,14.5,0,1.7,1.9,2.8,4.2,3.6,6.7,1.2,3.7,1.9,7.6,2,11.5,.3,9,.4,18.1,.3,27.1Z"/>
      <path class="cls-5" d="M107.3,184.4c0-2.5,0-5,0-7.4,0-1.9,0-1.9,2-1.9,2.2,0,4.3,0,6.5,0,2.1,0,2.1,0,2.1,2.1,0,4.6,0,9.1,.1,13.7,0,.7,0,1.4,.2,2.1,.2,.8,.6,1.6,1.5,1.6,.9,0,1.4-.7,1.6-1.5,.2-.5,.4-1.1,.4-1.6,.4-4.2,.3-8.5-.2-12.7-.2-1.8-.9-3.4-1.9-4.9-1.8-2.7-3.4-5.4-5.4-7.9-4.1-5.4-6.7-11.4-7.1-18.3-.5-7.7-.7-15.3,.7-23,.5-2.9,1.6-5.5,3.5-7.8,3.8-4.6,10.5-5,14.9-1,3.2,2.9,4.5,6.7,5,10.8,.6,5,.6,10.1,.6,15.1,0,1.1-.2,1.6-1.4,1.6-2.6,0-5.3,0-7.9,0-.9,0-1.3-.3-1.3-1.3,0-2.7,0-5.4,0-8.2,0-1.1,0-2.2-.3-3.3-.2-.7-.4-1.5-1.3-1.6-1-.1-1.3,.7-1.6,1.5-.2,.7-.4,1.4-.5,2.1-.2,3.4-.3,6.7,.4,10,.5,2.3,1.7,4.1,3.1,5.9,2.1,2.8,4.2,5.6,6.1,8.6,3.2,5,4.8,10.4,5.2,16.2,.5,7.3,.6,14.5,0,21.8-.4,4-1.4,7.9-4.1,11.1-4.7,5.6-11.9,5.5-16.5-.3-2.4-3.1-3.4-6.6-3.9-10.4-.5-3.7-.5-7.5-.8-11.2Z"/>
      <path class="cls-5" d="M210.2,183c0,5.8-.2,10.4-.9,15-.5,3.3-1.8,6.3-4.1,8.8-4.4,4.9-11.2,4.9-15.5,0-2.3-2.6-3.6-5.7-4.2-9-1.2-7.1-1.1-14.3-1.1-21.5,0-.8,.4-1.1,1.2-1.1,2.7,0,5.4,0,8.2,0,1.1,0,1.3,.5,1.3,1.4,0,3.6,0,7.2,0,10.8,0,1.5,.2,3,.3,4.5,0,.5,0,1,.2,1.4,.2,.7,.7,1.3,1.5,1.3,.7,0,1.1-.5,1.4-1.1,.4-.9,.6-1.8,.7-2.8,.2-4.2,.3-8.3-.4-12.4-.3-1.6-1-3-1.9-4.4-2.3-3.5-4.5-7-7-10.3-3.6-4.9-5.1-10.5-5.5-16.4-.5-6.8-.5-13.6,.4-20.4,.4-3.3,1.3-6.4,3.3-9.1,4.1-5.5,11.5-6,16.2-1,2.9,3.1,4,6.9,4.3,10.9,.4,4.7,.6,9.4,.5,14.1,0,1.7,0,1.7-1.7,1.7-2.3,0-4.6,0-7,0-1.8,0-1.8,0-1.9-1.8,0-3.3,.2-6.6-.2-9.8,0-.6,0-1.3-.4-1.9-.6-1.1-1.5-1.1-2.2,0-.6,.9-.8,1.9-.8,3-.2,2.7-.2,5.4,0,8.2,.2,2.8,1.5,5.2,3.2,7.4,2.1,2.8,4.2,5.6,6.1,8.6,3.3,5,5,10.5,5.4,16.4,.2,3.6,.5,7.2,.5,9.7Z"/>
      <path class="cls-6" d="M220.2,198.9c0,2.7,0,5.4,0,8.1,0,1-.3,1.5-1.3,1.4-1.9,0-3.8,0-5.7,0-.9,0-1.3-.3-1.3-1.3,0-5.5,0-11,0-16.5,0-.8,.3-1.2,1.1-1.2,2,0,4,0,6,0,.9,0,1.3,.3,1.3,1.3,0,2.7,0,5.4,0,8.1Z"/>
      <path class="cls-7" d="M134.8,198.9c0-2.6,0-5.3,0-7.9,0-1,.2-1.6,1.4-1.6,1.9,0,3.8,0,5.7,0,.8,0,1.1,.3,1.1,1.1,0,5.6,0,11.2,0,16.7,0,.9-.4,1.1-1.2,1.1-1.9,0-3.8,0-5.7,0-1,0-1.4-.4-1.4-1.4,0-2.7,0-5.4,0-8.1Z"/>
      <path class="cls-5" d="M182.4,198.9c0,2.7,0,5.4,0,8.2,0,1-.4,1.4-1.4,1.4-1.9,0-3.8,0-5.8,0-.8,0-1.1-.3-1.1-1.1,0-5.6,0-11.2,0-16.8,0-.7,.3-1,1-1,2.1,0,4.2,0,6.2,0,.9,0,1,.5,1,1.2,0,2.7,0,5.4,0,8.2Z"/>
      <path class="cls-8" d="M34.4,358.2c-3.4,0-6.9,0-10.3,0q-3.8,0-3.8,3.8v13.1c-3.3-3-4.4-3.7-6.8-4.3-6.2-1.6-11.9,2-13.1,8.3-.5,2.4-.4,4.8-.5,7.2,0,10,0,20,0,30,0,2.1,0,4.2,.2,6.2,.2,3.1,1.2,5.9,3.6,8.1,3.9,3.4,9.4,3.3,13.8-.2,.8-.7,1.6-1.4,2.4-2.2,.5,.7,.3,1.4,.3,2,0,1.8,0,1.8,1.9,1.8,3.8,0,7.7,0,11.5,0,2.5,0,2.3,.2,2.3-2.3,0-.3,0-.6,0-1v-67.1c0-.6,0-1.1,0-1.7,.1-1.3-.4-1.7-1.6-1.6Zm-14.1,43.8c0,5.4,0,10.7,0,16.1,0,1,0,1.9-.4,2.8-.4,1-1.2,1.5-2.2,1.4-1,0-1.5-.7-1.8-1.7-.2-1.1-.4-2.2-.4-3.3,0-10.5,0-21,0-31.4,0-1,.1-2.1,.4-3.1,.3-1.1,1-1.6,2.1-1.6,1,0,1.6,.5,2,1.4,.4,1.1,.4,2.2,.4,3.3,0,5.4,0,10.7,0,16.1h0Z"/>
      <path class="cls-8" d="M137.4,401c-.2-5,.3-10.5-.4-15.9-1-7-5.5-12.7-13-14.2-2.5-.5-5.1-.6-7.6-.4-6.9,.6-11.8,4.9-13.6,11.6-.4,1.6-.7,3.3-.9,4.9-.7,8.9-.4,17.9-.3,26.8,0,3.4,.4,6.8,1.7,10.1,1.6,4.1,4.4,6.8,8.6,8,3.6,1,7.3,1.2,10.9,.8,6.6-.8,10.9-4.5,13.2-10.7,.5-1.5,.8-3.1,1-4.7,.6-5.3,.3-10.7,.4-16.4Zm-15.8,17.3c0,.9,0,1.8-.3,2.6-.3,.8-.9,1.3-1.8,1.4-.9,0-1.5-.4-1.9-1.2-.4-1-.5-2-.5-3.1,0-5.5,0-11,0-16.5,0-5.4,0-10.9,0-16.3,0-1,0-1.9,.4-2.8,.4-.8,1-1.3,1.9-1.2,.9,0,1.5,.5,1.8,1.3,.3,.8,.3,1.7,.3,2.6,0,5.6,0,11.2,0,16.8h0c0,5.5,0,11,0,16.5Z"/>
      <path class="cls-8" d="M189.1,392c0-2.8-.2-5.6-.5-8.4-.5-5.8-3.4-10-8.9-12-5-1.8-10.3-1.9-15.3-.1-5.2,1.8-8.8,5.4-9.8,11.1-.7,3.6-.7,7.2-.7,10.8,0,1.1,.3,1.6,1.5,1.6,3.9,0,7.8,0,11.8,0,1.2,0,1.5-.4,1.5-1.5,0-2.6,0-5.3,0-7.9,0-1,0-1.9,.3-2.9,.2-.9,.8-1.4,1.6-1.5,.9-.1,1.6,.2,2.1,.9,.5,.7,.7,1.4,.7,2.3,.2,2.5,.2,4.9,0,7.4,0,1.6-.8,2.7-2.2,3.4-2.1,1.1-4.3,2.2-6.4,3.3-2.2,1.1-4.4,2.2-6.5,3.5-2.4,1.5-3.8,3.7-4.1,6.4-.6,5.1-.6,10.2,0,15.3,.3,2.6,1.1,5,3.3,6.7,4.8,3.7,12.3,3.8,15.7-2.5,0-.1,.2-.2,.7-.8,0,1.2,0,1.9,0,2.6,0,2.1,0,2.1,2,2.1,3.8,0,7.5,0,11.3,0,1.9,0,2,0,2-2,0-12.6,0-25.3,0-37.9Zm-15.6,12.6c0,4.6,0,9.3,0,13.9,0,.6,0,1.3-.1,1.9-.2,1.1-.8,1.7-1.9,1.8-1.1,.1-2-.4-2.4-1.6-.2-.5-.3-1.1-.3-1.6-.2-2.9-.2-5.7,0-8.6,.3-3.1,2.2-4.9,4.2-6.8,.6,.3,.5,.7,.5,1Z"/>
      <path class="cls-8" d="M282.1,406.6c-3.9,0-7.8,0-11.7,0-1.3,0-1.6,.5-1.6,1.7,0,2.9,0,5.8,0,8.6,0,1.3-.2,2.6-.6,3.8-.4,1.1-1.2,1.6-2.4,1.6-1.2,0-1.9-.8-2.1-1.9-.2-1.1-.2-2.2-.3-3.3,0-4.2,0-8.3,0-12.5,0-.3,0-.6,0-1,0-.5,.3-.9,.9-.9,.6,0,1.1,0,1.7,0,5.3,0,10.5,0,15.8,0,1.9,0,1.9,0,1.9-1.8,0-3.1,0-6.2,0-9.4-.1-3.2-.4-6.4-1.4-9.5-1.9-6-5.9-9.7-12-11.2-2.5-.6-5.1-.7-7.6-.4-7,.7-12,4.9-13.8,11.5-.3,1.2-.5,2.5-.7,3.8-.8,5.2-.3,10.5-.3,15.8,0,4.3,0,8.6,0,12.9,0,1.2,.2,2.4,.4,3.6,.9,7.8,5.5,12.8,13.2,14.4,2.1,.4,4.1,.4,6.2,.4,10-.1,14.5-7.8,15.6-14.1,.6-3.6,.4-7.2,.5-10.8,0-1.2-.5-1.5-1.6-1.5Zm-18.5-23.3c.1-1.4,.9-2.1,2.1-2.1,1.3,0,1.9,.8,2,1.9,.4,3,.3,6,.2,9,0,.4-.2,.8-.6,.8-1.1,0-2.2,0-3.3,0-.6,0-.6-.6-.6-1.1,0-1.4,0-2.7,0-4.1h0c0-1.5,0-3,.2-4.5Z"/>
      <path class="cls-1" d="M267.3,338.7c-.4-5.2-3.8-7.1-8.4-4.8-.1,0-.3,.1-.4,.2-.4,.2-.5,0-.6-.3-.2-1.1-1.1-.7-1.7-.6-.7,.1-.5,.9-.5,1.4,0,3.7,0,7.3,0,11,0,1.6,0,3.2,0,4.8,0,.9,.6,1,1.3,1,.7,0,1-.2,1-1,0-1.4,0-2.8,0-4.4,.7,.2,1.3,.3,1.8,.5,3.6,.8,6.4-.9,7.4-4.5,.3-1.1,.4-2.2,.3-3.3Zm-2.3,1.6c-.2,3.5-2.5,5.1-5.9,4.1-.9-.2-1.4-.6-1.3-1.7,0-.9,0-1.7,0-2.6,0-.6,0-1.1,0-1.7,0-2.2,1-3.3,3.4-3.5,1.9-.2,3.2,.8,3.6,3,.1,.8,.1,1.6,.1,2.4Z"/>
      <path class="cls-4" d="M131.1,338.6c-.4-5-3.8-6.9-8.3-4.7-.2,.1-.4,.2-.6,.3-.2,0-.4,.1-.5-.2-.1-1.1-1-.9-1.6-.7-.9,.2-.6,1-.6,1.6,0,5,0,10,0,15.1,0,.2,0,.5,0,.7,0,.8,.6,.8,1.2,.8,.7,0,1.1-.1,1-.9,0-1.4,0-2.9,0-4.2,.6-.2,1.1,0,1.5,.2,3.7,1.2,7.2-.9,7.9-5.3,.1-.9,.1-1.8,0-2.6Zm-2.6,3.6c-.8,2.4-4.3,3.5-6.4,2-.5-.3-.5-.8-.5-1.2,0-.9,0-1.7,0-2.6,0-.6,0-1.3,0-1.9,0-2.1,.8-3,3.1-3.4,1.9-.3,3.3,.5,3.8,2.4,.4,1.6,.5,3.2,0,4.7Z"/>
      <path class="cls-1" d="M167.5,337.5c0-2.8-1.5-4.2-4.2-4.5-1.4-.1-2.7,0-4.1,0-1.8,.2-1.7,.3-1.6,2.5,1.8-.5,3.4-.9,5.1-.7,.8,0,1.6,.3,2.1,1,.7,1,.4,1.8-.8,1.9-1.8,.1-3.5,.2-5.1,.9-2,.9-3,2.6-2.6,4.6,.4,2.1,2,3.5,4.1,3.6,1.3,0,2.5-.3,3.6-1,.6-.3,.8-.6,1.4,.2,.8,1,2.1,.3,2.1-1,0-2.6,0-5.1,0-7.7Zm-3.3,6.5c-1.5,.7-3,1.1-4.6,.4-.8-.3-1.1-1.1-1.1-2,0-1.1,.6-1.8,1.6-2.2,.4-.2,.7-.3,1.1-.4,1.3-.1,2.5-.2,4-.3,0,.7,0,1.1,0,1.5,0,1.1,.4,2.2-1,2.9Z"/>
      <path class="cls-2" d="M193.4,336.6c0-1.9-1.6-3.2-3.7-3.5-1.6-.3-3.2-.2-4.8,0-1.5,.2-1.5,.3-1.3,2.5,1.8-.5,3.4-.9,5.1-.7,.8,0,1.6,.3,2.1,1,.7,1,.3,1.8-.9,1.9-1.7,0-3.4,.2-4.9,.8-2.3,.9-3.2,2.7-2.7,5,.5,2,2.2,3.3,4.4,3.3,1.2,0,2.4-.4,3.4-1,.5-.3,.8-.5,1.2,.3,.4,.7,1.3,.4,2.1,.2,0-3.3,.1-6.5,0-9.8Zm-3.3,7.5c-1.5,.7-3,1.1-4.6,.3-1.4-.7-1.3-2.8,0-3.8,.7-.5,1.6-.7,2.5-.8,.9,0,1.9-.1,3.2-.2,0,.7,0,1.2,0,1.6,0,1.1,.3,2.2-1.1,2.8Z"/>
      <path class="cls-3" d="M287.1,333.1c-4.2-1-7.7,1.5-8.1,5.9-.5,5.4,3,8.7,8.4,7.8,.6-.1,1.3-.2,1.9-.4,1.6-.5,1.6-.5,1.1-2.6-5.7,2.2-8.8,1-8.9-3.4,.8-.4,1.6-.2,2.4-.2,2,0,4,0,6,0,.6,0,1.2,0,1.2-.8,.3-3.3-1.2-5.7-3.9-6.3Zm-5.8,5.2c.7-2.6,2-3.6,4.2-3.5,2,.1,2.8,.9,3.2,3.5h-7.4Z"/>
      <path class="cls-3" d="M141.8,333.3c-3.5-1.2-7.5,0-8.6,4.4-1.5,5.8,2.5,10,8.4,8.9,.5,0,.9-.2,1.4-.3,1.7-.5,1.7-.5,1.5-2.7-5.9,2.2-9,1-9-3.3,.8-.3,1.6-.2,2.4-.2,2,0,4,0,6,0,.6,0,1.1,0,1.2-.8,.4-2.4-1-5.4-3.2-6.1Zm-6.2,5c.1-2.3,1.5-3.5,3.8-3.5,2.2,0,3.1,1,3.3,3.5h-7.1Z"/>
      <path class="cls-3" d="M23.9,333.3c-3.5-1.5-7.3,.3-8.5,3.9-2,5.9,2,10.6,8.1,9.5,.5,0,.9-.2,1.4-.3,1.8-.5,1.8-.5,1.5-2.7-6.1,2-8.8,1-9.1-3.5,2.9,0,5.6,0,8.3,0,.5,0,1.1,.1,1.3-.7,.6-2.1-1-5.3-3.1-6.2Zm-.7,5.1c-1.9,0-3.8,0-5.7,0,.3-2.5,1.6-3.6,3.9-3.6,2.2,0,3.1,1,3.2,3.4-.4,.3-.9,.2-1.4,.2Z"/>
      <path class="cls-2" d="M316,341.2h0c0-1.5,0-3,0-4.6,0-1.6-.9-2.7-2.4-3.2-2.3-.8-4.6-.6-6.8,0-.9,.2-.8,.9-.7,1.5,.1,.9,.7,.7,1.3,.5,1.3-.5,2.7-.5,4-.4,.9,0,1.7,.4,2.2,1.2,.6,1,.3,1.6-.9,1.7-1.8,.1-3.5,.2-5.2,.9-2.1,.9-3,2.6-2.6,4.8,.4,2,2.2,3.4,4.3,3.4,1.2,0,2.4-.4,3.4-1,.6-.3,.8-.6,1.5,.2,.8,1,1.9,.4,2-.9,0-1.4,0-2.7,0-4.1Zm-2.9,2.5c-1.2,.8-2.6,1.2-4.1,1-.9-.2-1.7-.5-1.9-1.6-.2-1.1,0-2.1,1.1-2.7,1.1-.7,2.4-.7,3.8-.8,.6,.1,1.4-.5,1.8,.5,.4,1,0,3.1-.7,3.5Z"/>
      <path class="cls-2" d="M82.1,336.9c-1.4-4.1-6.7-5.4-9.8-2.5-2.7,2.6-2.7,8.3,0,10.9,.6,.6,1.2,1,2,1.2,4.4,1.5,8.3-1.5,8.3-6.7,0-1-.2-2-.5-3Zm-2.4,5.9c-.6,1.4-1.7,2-3.2,2.1-1.5,0-2.8-.8-3.4-2.2-.6-1.5-.7-3.1-.4-4.7,.4-2.1,1.6-3.2,3.5-3.2,2,0,3.3,1,3.8,3.2,.1,.5,.1,1.1,.2,1.7,0,1.1-.2,2.1-.6,3Z"/>
      <path class="cls-2" d="M116.1,336.7c-.9-2.5-3-3.8-5.8-3.7-2.7,0-4.7,1.6-5.5,4.1-.3,.9-.5,1.9-.4,2.8,0,1.1,.1,2.1,.5,3.1,.8,2.4,2.8,3.9,5.4,4,2.7,.1,4.9-1.3,5.8-3.7,.8-2.2,.8-4.4,0-6.6Zm-2.2,5.8c-.5,1.6-1.8,2.5-3.4,2.5-1.6,0-2.8-.9-3.4-2.4-.4-.9-.4-1.9-.4-2.8,0-.9,0-1.7,.4-2.6,.7-1.6,1.8-2.3,3.5-2.2,1.6,0,2.7,.8,3.2,2.4,.6,1.7,.6,3.4,0,5.1Z"/>
      <path class="cls-2" d="M207.8,336.5c-1-2.4-2.8-3.6-5.4-3.6-2.6,0-4.4,1-5.6,3.4-.5,1.1-.6,2.3-.7,3.7,0,.5,0,1.2,.2,1.9,.5,2.9,2.7,4.9,5.6,5,2.9,.2,5.2-1.4,6.1-4.3,.6-2,.6-4.1-.2-6.1Zm-2.2,6.3c-.7,1.4-1.9,2.3-3.4,2.2-1.4,0-2.6-.7-3.2-2.1-.8-1.9-.8-3.9,0-5.8,.5-1.4,1.7-2.1,3.2-2.1,1.5,0,2.6,.5,3.3,1.9,.5,1,.6,2.1,.6,3.2,0,1,0,1.9-.5,2.8Z"/>
      <path class="cls-9" d="M160.3,161.9c0,8.1,0,16.2,0,24.2,0,1.9-.2,3.8-.3,5.7,0,.5,0,1-.2,1.4-.2,.6-.5,1.2-1.2,1.3-.8,0-1.1-.5-1.3-1.2-.2-.7-.3-1.4-.3-2.1,0-2.5-.1-5-.1-7.4,0-15.4,0-30.7,0-46.1,0-1.7,0-3.4,.1-5,0-.6,0-1.1,.2-1.7,.2-.8,.4-1.9,1.5-1.9,1.1,0,1.2,1.1,1.3,2,.3,1.7,.3,3.3,.3,5,0,8.6,0,17.1,0,25.7Z"/>
    </g>
  </g>
</svg>