<?xml version="1.0" encoding="UTF-8"?>
<svg id="Camada_2" data-name="Camada 2" xmlns="http://www.w3.org/2000/svg" viewBox="0 0 139.61 258.51">
  <defs>
    <style>
      .cls-1 {
        fill: #000;
        stroke-width: 0px;
      }
    </style>
  </defs>
  <g id="Camada_1-2" data-name="Camada 1">
    <g>
      <path class="cls-1" d="M136.51,164.31h-2.57c-25.29,0-50.58.03-75.87,0-25.46-.04-47.66-17.33-52.95-41.17-5.86-26.42,8.9-52.37,34.96-61.33,5.63-1.94,11.42-2.94,17.4-2.91,10.8.05,21.61.01,32.41.01.86,0,1.71,0,2.83,0V0h43.78v164.31ZM92.34,128.03v-33.9c-.35-.07-.58-.15-.81-.15-6.88,0-13.76-.02-20.64.04-1.51.01-3.04.16-4.52.44-8.49,1.56-14.6,9.2-14.17,17.65.4,8.05,7.65,15.54,15.92,15.87,7.99.31,15.99.07,24.22.07Z"/>
      <path class="cls-1" d="M58.82.54v35.58H15.86V.54h42.96Z"/>
      <g>
        <path class="cls-1" d="M.21,219.97v-39.87h17.05c4.31,0,8,.76,11.06,2.27,3.06,1.51,5.4,3.75,7.02,6.73,1.62,2.97,2.43,6.62,2.43,10.94s-.82,7.97-2.45,10.94c-1.63,2.97-3.99,5.21-7.07,6.73-3.08,1.51-6.79,2.27-11.13,2.27H.21ZM16.6,210.4c2,0,3.68-.36,5.06-1.08,1.38-.72,2.43-1.85,3.15-3.38.72-1.53,1.08-3.5,1.08-5.89s-.36-4.36-1.08-5.89c-.72-1.53-1.77-2.66-3.15-3.38-1.38-.72-3.06-1.08-5.06-1.08h-4.94v20.72h4.94Z"/>
        <path class="cls-1" d="M41.43,219.97v-39.87h11.45v39.87h-11.45Z"/>
        <path class="cls-1" d="M57.79,219.97v-39.87h12.03l9.62,16.11c.81,1.41,1.68,3.03,2.61,4.87.93,1.84,1.86,3.78,2.79,5.82.08.18.17.36.25.54.08.18.16.36.24.53l-1.54,5.4c-.06-.58-.1-1.15-.14-1.71-.04-.57-.07-1.12-.11-1.67-.16-2.59-.26-4.99-.3-7.18s-.07-4.4-.08-6.62v-16.09h11.16v39.87h-12.03l-9.45-15.64c-1-1.66-1.9-3.2-2.7-4.61-.8-1.41-1.56-2.85-2.3-4.3-.73-1.46-1.44-2.96-2.13-4.52l2.62-1.39c.18,1.95.31,3.77.4,5.47.09,1.69.15,3.26.18,4.71.03,1.45.04,3.01.04,4.68v15.61h-11.16Z"/>
        <path class="cls-1" d="M118.79,220.91c-4.1,0-7.72-.85-10.86-2.56-3.14-1.71-5.59-4.14-7.33-7.29-1.74-3.15-2.61-6.83-2.61-11.02s.87-7.84,2.62-10.98c1.75-3.14,4.19-5.57,7.34-7.28,3.15-1.71,6.76-2.57,10.84-2.57s7.69.86,10.84,2.57c3.15,1.71,5.6,4.14,7.35,7.28,1.75,3.14,2.63,6.8,2.63,10.98s-.88,7.86-2.62,11.02-4.2,5.59-7.35,7.29c-3.15,1.71-6.76,2.56-10.84,2.56ZM118.79,211.14c1.8,0,3.37-.4,4.71-1.21,1.34-.81,2.38-2.04,3.12-3.7.74-1.66,1.11-3.72,1.11-6.19s-.37-4.51-1.12-6.15-1.79-2.88-3.12-3.68c-1.33-.81-2.9-1.21-4.7-1.21s-3.37.4-4.71,1.21c-1.34.81-2.38,2.04-3.12,3.68s-1.11,3.7-1.11,6.15.37,4.55,1.11,6.2c.74,1.65,1.78,2.88,3.12,3.69s2.91,1.21,4.71,1.21Z"/>
      </g>
      <g>
        <path class="cls-1" d="M0,257.87l9.02-26.77h9.07l9.49,26.77h-7.74l-4.23-13.6c-.34-1.15-.66-2.23-.96-3.24s-.57-1.95-.83-2.82-.49-1.72-.73-2.56h.96c-.2.81-.42,1.63-.65,2.47-.23.84-.5,1.77-.8,2.8-.3,1.03-.62,2.12-.95,3.26l-4.18,13.69H0ZM6.79,253.73v-6.01h14.04v6.01H6.79Z"/>
        <path class="cls-1" d="M34,257.87v-26.77h7.46v20.14h11.46v6.63h-18.93Z"/>
        <path class="cls-1" d="M63.7,257.87l-8.94-26.77h7.74l3.33,10.93c.5,1.74.96,3.33,1.36,4.77.4,1.43.82,2.96,1.24,4.59.42,1.62.8,3.22,1.14,4.78h-2.52c.35-1.6.73-3.22,1.14-4.85.4-1.64.81-3.22,1.22-4.76s.83-3.04,1.25-4.53l3.21-10.93h7.49l-8.59,26.77h-9.07Z"/>
        <path class="cls-1" d="M88.04,257.87v-26.77h20.82v6.64h-13.36v13.51h13.33v6.63h-20.8ZM92.2,247.64v-6.4h15.59v6.4h-15.59Z"/>
        <path class="cls-1" d="M127.52,258.51c-2.52,0-4.65-.38-6.38-1.15-1.73-.76-3.04-1.85-3.94-3.26-.9-1.41-1.38-3.09-1.46-5.04h7.36c.06.93.28,1.66.66,2.19s.89.9,1.53,1.11,1.42.32,2.35.32,1.62-.09,2.19-.26c.57-.17.99-.43,1.27-.77.28-.34.42-.77.42-1.29,0-.48-.13-.87-.38-1.19s-.68-.59-1.27-.81-1.4-.42-2.43-.58l-3.06-.47c-1.6-.25-3-.71-4.19-1.39-1.19-.68-2.12-1.59-2.8-2.75-.67-1.16-1.01-2.55-1.01-4.18s.33-2.96,1-4.23c.66-1.27,1.79-2.29,3.38-3.08s3.71-1.18,6.34-1.18c2.32,0,4.29.32,5.91.96,1.62.64,2.87,1.61,3.76,2.91.89,1.3,1.4,2.93,1.54,4.89h-6.93c-.07-.66-.25-1.21-.52-1.64s-.69-.77-1.26-1.01c-.57-.23-1.32-.35-2.25-.35-.81,0-1.48.08-2,.25s-.91.41-1.15.72-.37.69-.37,1.13.11.8.32,1.09c.21.29.55.54,1,.73s1.07.35,1.84.48l2.84.44c2.14.33,3.89.84,5.24,1.54,1.35.69,2.35,1.58,3,2.67.65,1.09.97,2.41.97,3.97,0,1.89-.44,3.52-1.32,4.9-.88,1.38-2.19,2.45-3.91,3.2-1.72.75-3.83,1.13-6.31,1.13Z"/>
      </g>
    </g>
  </g>
</svg>